<?xml version="1.0" encoding="UTF-8"?>
<svg width="968.35" height="490.72" fill-rule="evenodd" image-rendering="optimizeQuality" shape-rendering="geometricPrecision" text-rendering="geometricPrecision" viewBox="0 0 26935 13650" xmlns="http://www.w3.org/2000/svg">
 <path d="m15405 6899c-995-2528-3047-2810-3723-1877-398 28-475 241-470 479 120 135 732 442 720 1056 238 236 151 494-144 656-349 146-821 192-1167-131-641-646-632-1540 288-2413 320-417 365-767 229-1219-1605-3874-8610-2232-11099-3448 1027 707 2044 1420 3816 1613-1276 155-2561 182-3855 92 1037 764 3008 886 5166 878-1490 157-2981 219-4471 184 1094 546 2647 717 4406 721-1113 206-2213 275-3291 79 840 612 2158 734 3645 682-550 243-1206 292-1862 341 846 325 1815 418 2819 446-486 155-1027 221-1600 236 443 276 1113 445 1888 564-366 129-848 164-1364 170 606 436 1343 615 2098 760-499 107-1001 147-1508 79 484 372 1111 602 1796 774-378 109-780 175-1193 223 476 218 1079 316 1705 393-191 213-425 364-669 498 417 71 794 34 1141-79-77 252-289 452-524 642 385 0 764-70 1141-184-63 319-400 450-727 700 423-67 1052-197 1317-458 95 360 67 918 40 1252 248-276 460-572 577-918 282 135 400 307 577 564 304-553-436-1519 124-2006-327 891 606 1819 171 2118-90-45-191-54-302-34 63 58 123 117 139 184-149-49-297-25-446 13 122 66 218 99 262 207-336 99-573 108-918 94 47 206-240 491-193 697 32 139 398 199 429 338 240-300 507-583 852-813 124 104 191 229 223 367 58-121 96-242 66-367 156 106 268 226 354 354 72-114 56-343 19-454l427-254c-73 840-464 1437-839 2045 533-95 861-491 1062-1075-87 542-175 1084-262 1626 503-306 629-922 747-1665 23 664-130 1440 447 2019 577-579 424-1355 447-2019 118 744 244 1359 747 1665-87-542-175-1084-262-1626 201 584 529 980 1062 1075-375-609-766-1205-839-2045l427 254c-36 111-53 340 19 454 86-128 198-248 354-354-30 125 8 247 66 367 32-139 99-264 223-367 345 230 612 513 852 813 32-139 398-199 429-338 47-206-240-491-193-697-345 14-582 5-918-94 44-108 140-142 262-207-149-39-297-62-446-13 15-66 75-126 139-184-111-21-213-11-302 34-435-300 499-1227 171-2118 559 487-180 1453 124 2006 177-257 295-429 577-564 117 346 329 642 577 918-27-334-90-883 5-1243 264 261 923 353 1346 420-340-251-613-353-722-672 376 113 756 184 1141 184-235-191-447-390-524-642 347 113 724 149 1141 79-244-135-477-285-669-498 625-77 1228-176 1705-393-413-47-815-114-1193-223 686-171 1312-401 1796-774-507 68-1009 28-1508-79 755-146 1492-325 2098-760-515-7-997-41-1364-170 775-119 1446-287 1888-564-573-15-1114-81-1600-236 1004-27 1973-121 2819-446-656-48-1312-98-1862-341 1487 52 2805-69 3645-682-1078 196-2178 127-3291-79 1759-4 3312-175 4406-721-1490 35-2981-27-4471-184 2158 7 4129-115 5166-878-1294 90-2579 63-3855-92 1772-192 2788-906 3816-1613-2490 1216-9494-426-11099 3448-135 452-90 802 229 1219 920 873 929 1767 288 2413-346 323-757 190-909-182z" fill="#1d1819"/>
 <path d="m11850 6091-661-240c400 394 268 655 59 926l664-424-62-262z" fill="#1d1819"/>
 <path d="m10096 3172c-1279-1912-4001-1979-6517-2308 3320-57 5960 415 6936 2177 321 603 330 1168-223 1665-798 847-627 1762 79 2714-773-667-1322-1429-498-2780 358-474 494-960 223-1469z" fill="#fff000"/>
 <path d="m7447 2595c595-146 1167 51 1744 184-588-384-1254-702-2491-524 213 306 464 594 852 813-363-17-726 17-1088 157 173 271 395 529 760 747-376 39-704 175-1010 354 369 354 781 568 1219 695-250 65-484 162-682 341 308 236 637 419 997 524-279 80-468 213-642 354 337 211 686 366 1049 446-158 122-279 224-380 315 450 336 905 503 1364 524-351-162-705-322-905-564 129-122 312-228 511-328-378-109-771-184-1101-406 235-142 520-226 800-315-411-144-828-282-1141-524 237-175 553-263 878-341-459-175-936-296-1337-642 340-167 774-210 1219-236-393-231-789-459-1075-761 363-144 810-98 1246-79-263-239-542-478-787-734z" fill="#fff000"/>
 <path d="m12834 8477c-124-114-332-170-544-223 231 188 434 402 577 669 103-232 257-459 439-682-170 57-337 118-472 236z" fill="#fff000"/>
 <path d="m12009 9037c-95-87-253-130-414-170 176 143 330 306 439 509 79-177 196-349 334-519-129 43-257 90-359 180z" fill="#fff000"/>
 <path d="m12751 9991c-67-62-180-92-295-121 125 102 235 218 313 362 56-126 139-248 238-370-92 31-183 64-256 128z" fill="#fff000"/>
 <path d="m9497 11430c-382-57-801-98-1121 20-744 227-430 912-164 898-33-224 6-402 367-380 55-10 55-156 170-184 187-61 374-56 511 0 266 144 513 318 656 656-59 322-64 556 52 590 218-6 377 54 341 328 177 25 404-4 472-275-13-610-257-1090-480-1526 47-721-152-1870-568-2054-297-87-472-31-498 197 281 145 296 340 26 590-31 75 40 122 393 92 91 166 41 301-26 433-200-165-434-259-721-249-472-431-999-183-774 406 112-201 485-208 459 157 212 32 282-67 249-262 270 147 473 347 656 564z" fill="#fff000" stroke="#1d1819" stroke-linecap="round" stroke-linejoin="round" stroke-width="49.28"/>
 <path d="m8133 10971c-93 492 285 637 640 598-169-55-475-352-181-441 53-488-475-304-459-157z" fill="#1d1819"/>
 <path d="m8212 12348c429 201 711 31 839-254-132 119-542 172-471-126-408-126-469 316-367 380z" fill="#1d1819"/>
 <path d="m10310 13358c-438 306-947 110-976-392 132 119 493 356 635 64 168-110 461 116 341 328z" fill="#1d1819"/>
 <path d="m16840 3172c1279-1912 4001-1979 6517-2308-3320-57-5960 415-6936 2177-321 603-330 1168 223 1665 798 847 627 1762-79 2714 773-667 1322-1429 498-2780-358-474-494-960-223-1469z" fill="#fff000"/>
 <path d="m19488 2595c-595-146-1167 51-1744 184 588-384 1254-702 2491-524-213 306-464 594-852 813 363-17 726 17 1088 157-173 271-395 529-760 747 376 39 704 175 1010 354-369 354-781 568-1219 695 250 65 484 162 682 341-308 236-637 419-997 524 279 80 468 213 642 354-337 211-686 366-1049 446 158 122 279 224 380 315-450 336-905 503-1364 524 351-162 705-322 905-564-129-122-312-228-511-328 378-109 771-184 1101-406-235-142-520-226-800-315 411-144 828-282 1141-524-237-175-553-263-878-341 459-175 936-296 1337-642-340-167-774-210-1219-236 393-231 789-459 1075-761-363-144-810-98-1246-79 263-239 542-478 787-734z" fill="#fff000"/>
 <path d="m9234 9700c-539 116-456 665-282 977-15-177 113-622 308-387 425-314 93-598-26-590z" fill="#1d1819"/>
 <path d="m14102 8477c124-114 332-170 544-223-231 188-434 402-577 669-103-232-257-459-439-682 170 57 337 118 472 236z" fill="#fff000"/>
 <path d="m14926 9037c95-87 253-130 414-170-176 143-330 306-439 509-79-177-196-349-334-519 129 43 257 90 359 180z" fill="#fff000"/>
 <path d="m14184 9991c67-62 180-92 295-121-125 102-235 218-313 362-56-126-139-248-238-370 92 31 183 64 256 128z" fill="#fff000"/>
 <path d="m12087 6082c-269-73-332-575-875-582-439 59-801 666-403 995-242-671 666-457 898-328-156 147-68 430-459 610 399 48 712-155 970-518 31-98 4-166-131-177z" fill="#fff000" stroke="#1d1819" stroke-linecap="round" stroke-linejoin="round" stroke-width="49.28"/>
 <path d="m14156 5781c310 229 526 539 774 826-524-1295-1920-2446-3193-1455-258 27-312 140-282 288 139 65 278 134 426 39 420-309 828-373 1213 52-427-73-422 83-583 125-242 84-305 45-433-46 54 215 284 264 492 334-287-23-519-112-688-275 63 143 114 292 361 341 116 54 191 115 118 203-193 153-177 293 33 420 134 280 70 549 39 820 148-139 274-302 308-564 271 162 398 452 485 780 91-278 139-559 72-846 350 45 606 331 859 623-154-517-419-985-1292-1187 608-39 937-263 715-852 258 166 474 381 583 721 66-98 58-215-7-347z" fill="#fefefe"/>
 <path d="m12377 5630c-152 39-277-55-226-141 219-151 420-147 615-86-150 48-287 113-388 226z" fill="#fefefe"/>
 <path d="m9654 10381c123-18 222-109 269-208" fill="none" stroke="#1d1819" stroke-linecap="round" stroke-linejoin="round" stroke-width="49.28"/>
 <path d="m8841 10867c-21-111-50-202-141-231" fill="none" stroke="#1d1819" stroke-linecap="round" stroke-linejoin="round" stroke-width="49.28"/>
 <path d="m9916 12440c21-111 132-253 299-251" fill="none" stroke="#1d1819" stroke-linecap="round" stroke-linejoin="round" stroke-width="49.28"/>
 <path d="m8695 11811c12-113-111-204-261-203" fill="none" stroke="#1d1819" stroke-linecap="round" stroke-linejoin="round" stroke-width="49.28"/>
 <path d="m9628 10814c-43 211 105 318 108 515" fill="none" stroke="#1d1819" stroke-linecap="round" stroke-linejoin="round" stroke-width="49.28"/>
 <path d="m17439 11430c382-57 801-98 1121 20 744 227 430 912 164 898 33-224-6-402-367-380-55-10-55-156-170-184-187-61-374-56-511 0-266 144-513 318-656 656 59 322 64 556-52 590-218-6-377 54-341 328-177 25-404-4-472-275 13-610 257-1090 480-1526-47-721 152-1870 568-2054 297-87 472-31 498 197-281 145-296 340-26 590 31 75-40 122-393 92-91 166-41 301 26 433 200-165 434-259 721-249 472-431 999-183 774 406-112-201-485-208-459 157-212 32-282-67-249-262-270 147-473 347-656 564z" fill="#fff000" stroke="#1d1819" stroke-linecap="round" stroke-linejoin="round" stroke-width="49.28"/>
 <path d="m18802 10971c93 492-285 637-640 598 169-55 475-352 181-441-53-488 475-304 459-157z" fill="#1d1819"/>
 <path d="m18724 12348c-429 201-711 31-839-254 132 119 542 172 471-126 408-126 469 316 367 380z" fill="#1d1819"/>
 <path d="m16626 13358c438 306 947 110 976-392-132 119-493 356-635 64-168-110-461 116-341 328z" fill="#1d1819"/>
 <path d="m17701 9700c539 116 456 665 282 977 15-177-113-622-308-387-425-314-93-598 26-590z" fill="#1d1819"/>
 <path d="m17281 10381c-123-18-222-109-269-208" fill="none" stroke="#1d1819" stroke-linecap="round" stroke-linejoin="round" stroke-width="49.28"/>
 <path d="m18094 10867c21-111 50-202 141-231" fill="none" stroke="#1d1819" stroke-linecap="round" stroke-linejoin="round" stroke-width="7.5102"/>
 <path d="m17019 12440c-21-111-132-253-299-251" fill="none" stroke="#1d1819" stroke-linecap="round" stroke-linejoin="round" stroke-width="49.28"/>
 <path d="m18240 11811c-12-113 111-204 261-203" fill="none" stroke="#1d1819" stroke-linecap="round" stroke-linejoin="round" stroke-width="49.28"/>
 <path d="m17307 10814c43 211-105 318-108 515" fill="none" stroke="#1d1819" stroke-linecap="round" stroke-linejoin="round" stroke-width="49.28"/>
 <path d="m12436 5553a106 106 0 1 0 -212 0 106 106 0 1 0 212 0" fill="#1d1819"/>
</svg>
